<svg xmlns="http://www.w3.org/2000/svg" viewBox="0 0 1200 320" role="img" aria-label="sigil — provenance for AI-edited code" preserveAspectRatio="xMidYMid meet">
  <defs>
    <linearGradient id="bg" x1="0" y1="0" x2="0" y2="1">
      <stop offset="0%" stop-color="#0a0118"/>
      <stop offset="60%" stop-color="#1a0033"/>
      <stop offset="100%" stop-color="#3d0066"/>
    </linearGradient>
    <linearGradient id="title" x1="0" y1="0" x2="1" y2="1">
      <stop offset="0%" stop-color="#ff2975"/>
      <stop offset="40%" stop-color="#ee44ff"/>
      <stop offset="80%" stop-color="#5af1ff"/>
      <stop offset="100%" stop-color="#00f0ff"/>
    </linearGradient>
    <linearGradient id="horizon" x1="0" y1="0" x2="0" y2="1">
      <stop offset="0%" stop-color="#ff2975" stop-opacity="0"/>
      <stop offset="50%" stop-color="#ff2975" stop-opacity="0.25"/>
      <stop offset="100%" stop-color="#ff2975" stop-opacity="0.55"/>
    </linearGradient>
    <radialGradient id="seal-glow" cx="0.5" cy="0.5" r="0.8">
      <stop offset="0%" stop-color="#00f0ff" stop-opacity="0.18"/>
      <stop offset="100%" stop-color="#00f0ff" stop-opacity="0"/>
    </radialGradient>
    <pattern id="grid" width="36" height="36" patternUnits="userSpaceOnUse">
      <path d="M 36 0 L 0 0 0 36" fill="none" stroke="#ffffff" stroke-width="0.5" opacity="0.06"/>
    </pattern>
    <pattern id="scanlines" width="2" height="4" patternUnits="userSpaceOnUse">
      <rect width="2" height="2" fill="#000000" opacity="0.18"/>
    </pattern>
  </defs>

  <!-- background -->
  <rect width="1200" height="320" fill="url(#bg)"/>
  <rect width="1200" height="320" fill="url(#grid)"/>

  <!-- synthwave horizon -->
  <rect x="0" y="225" width="1200" height="95" fill="url(#horizon)"/>
  <line x1="0" y1="225" x2="1200" y2="225" stroke="#ff2975" stroke-width="1.5" opacity="0.7"/>

  <!-- vanishing-point grid lines (perspective) -->
  <g stroke="#ff2975" stroke-width="0.8" opacity="0.4">
    <line x1="600" y1="225" x2="0"    y2="320"/>
    <line x1="600" y1="225" x2="200"  y2="320"/>
    <line x1="600" y1="225" x2="400"  y2="320"/>
    <line x1="600" y1="225" x2="800"  y2="320"/>
    <line x1="600" y1="225" x2="1000" y2="320"/>
    <line x1="600" y1="225" x2="1200" y2="320"/>
  </g>
  <g stroke="#ff2975" stroke-width="0.6" opacity="0.35">
    <line x1="0" y1="245" x2="1200" y2="245"/>
    <line x1="0" y1="270" x2="1200" y2="270"/>
    <line x1="0" y1="298" x2="1200" y2="298"/>
  </g>

  <!-- hexagonal seal -->
  <g transform="translate(180, 160)">
    <circle r="120" fill="url(#seal-glow)"/>
    <polygon points="0,-95 82,-47 82,47 0,95 -82,47 -82,-47"
             fill="none" stroke="#00f0ff" stroke-width="3" stroke-linejoin="miter"/>
    <polygon points="0,-65 56,-32 56,32 0,65 -56,32 -56,-32"
             fill="none" stroke="#ff2975" stroke-width="2" stroke-linejoin="miter"/>
    <polygon points="0,-38 33,-19 33,19 0,38 -33,19 -33,-19"
             fill="none" stroke="#ee44ff" stroke-width="1.2" opacity="0.7"/>
    <text x="0" y="20" text-anchor="middle"
          font-family="'Courier New', Consolas, monospace"
          font-size="56" font-weight="700" fill="#ffffff">@</text>
    <!-- corner ticks -->
    <g stroke="#00f0ff" stroke-width="2">
      <line x1="-95" y1="-55" x2="-105" y2="-65"/>
      <line x1="95"  y1="-55" x2="105"  y2="-65"/>
      <line x1="-95" y1="55"  x2="-105" y2="65"/>
      <line x1="95"  y1="55"  x2="105"  y2="65"/>
    </g>
  </g>

  <!-- SIGIL wordmark -->
  <g>
    <!-- shadow / glow behind -->
    <text x="334" y="184"
          font-family="Impact, 'Arial Black', 'Helvetica Neue', sans-serif"
          font-size="148" font-weight="900"
          fill="#ff2975" opacity="0.4"
          letter-spacing="14">SIGIL</text>
    <!-- main -->
    <text x="330" y="180"
          font-family="Impact, 'Arial Black', 'Helvetica Neue', sans-serif"
          font-size="148" font-weight="900"
          fill="url(#title)"
          letter-spacing="14">SIGIL</text>
  </g>

  <!-- divider rule + version chip -->
  <line x1="332" y1="208" x2="868" y2="208" stroke="#00f0ff" stroke-width="2"/>
  <g transform="translate(880, 197)">
    <rect x="0" y="0" width="78" height="22" fill="none" stroke="#00f0ff" stroke-width="1.5"/>
    <text x="39" y="16" text-anchor="middle"
          font-family="'Courier New', Consolas, monospace"
          font-size="13" font-weight="700" fill="#00f0ff" letter-spacing="2">V0.1</text>
  </g>

  <!-- tagline -->
  <text x="330" y="245"
        font-family="'Courier New', Consolas, monospace"
        font-size="17" fill="#5af1ff"
        letter-spacing="6"
        font-weight="700">PROVENANCE · DRIFT · AI-EDITED CODE</text>

  <!-- frame scanlines -->
  <line x1="0" y1="2"   x2="1200" y2="2"   stroke="#00f0ff" stroke-width="2" opacity="0.6"/>
  <line x1="0" y1="318" x2="1200" y2="318" stroke="#ff2975" stroke-width="2" opacity="0.6"/>

  <!-- subtle CRT scanlines overlay -->
  <rect width="1200" height="320" fill="url(#scanlines)"/>
</svg>
